<svg xmlns="http://www.w3.org/2000/svg" viewBox="0 0 47 53" width="47" height="53">
	<style>
		tspan { white-space:pre }
		.shp0 { fill: #87949e } 
	</style>
	<g id="About Us">
		<g id="2nd">
			<path id="Atom" class="shp0" d="M46.19 39.5C44.82 41.85 42.01 43.05 38.13 43.05C36.59 43.05 34.88 42.85 33.03 42.47C30.9 49.2 27.5 53.01 23.5 53.01C19.5 53.01 16.1 49.2 13.97 42.48C12.08 42.87 10.33 43.06 8.78 43.06C4.93 43.06 2.19 41.88 0.81 39.5C-1.11 36.19 0.42 31.52 5.01 26.5C0.42 21.48 -1.11 16.81 0.81 13.49C2.72 10.22 7.45 9.18 13.97 10.53C16.1 3.8 19.5 -0.01 23.5 -0.01C27.5 -0.01 30.9 3.8 33.03 10.53C35.09 10.1 36.95 9.9 38.61 9.94C42.25 10.01 44.86 11.21 46.19 13.49C48.11 16.81 46.58 21.48 41.99 26.5C46.58 31.52 48.11 36.18 46.19 39.5ZM18.19 38.9C19.84 45.56 22.32 48.04 23.5 48.04C24.54 48.04 26.58 46.12 28.18 41.14C26.31 40.51 24.38 39.73 22.42 38.81C20.82 38.06 19.24 37.24 17.74 36.38C17.72 36.36 17.69 36.35 17.67 36.34C17.83 37.2 17.98 38.08 18.19 38.9ZM5.19 37.03C5.66 37.85 8.11 38.59 12.8 37.64C12.42 35.68 12.11 33.65 11.94 31.52C11.82 30.02 11.76 28.47 11.75 26.92C11.23 27.37 10.73 27.82 10.26 28.28C5.51 32.84 4.63 36.07 5.19 37.03ZM15.06 15.89C8.88 14.18 5.73 15.03 5.18 15.97C4.7 16.8 5.31 19.36 8.62 23.03C9.96 21.88 11.42 20.74 12.99 19.63C14.51 18.58 16.06 17.59 17.6 16.7C16.74 16.4 15.89 16.12 15.06 15.89ZM28.81 14.09C27.16 7.44 24.68 4.96 23.5 4.96C22.46 4.96 20.42 6.88 18.82 11.86C20.69 12.49 22.62 13.26 24.58 14.19C26.18 14.94 27.76 15.76 29.26 16.62C29.28 16.63 29.31 16.65 29.33 16.66C29.17 15.79 29.02 14.92 28.81 14.09ZM30.08 23.02C28.97 22.27 27.84 21.56 26.72 20.91C25.69 20.32 24.6 19.75 23.5 19.21C22.4 19.75 21.32 20.32 20.28 20.91C19.16 21.56 18.03 22.27 16.92 23.02C16.85 24.17 16.78 25.32 16.78 26.5C16.78 27.68 16.85 28.83 16.92 29.98C18.03 30.73 19.16 31.44 20.28 32.08C21.32 32.68 22.4 33.25 23.5 33.79C24.6 33.25 25.69 32.68 26.72 32.08C27.84 31.44 28.97 30.73 30.08 29.98C30.15 28.83 30.22 27.68 30.22 26.5C30.22 25.32 30.15 24.17 30.08 23.02ZM29.4 36.29C30.26 36.6 31.11 36.87 31.94 37.1C38.11 38.82 41.27 37.97 41.82 37.03C42.3 36.19 41.69 33.63 38.39 29.97C37.04 31.12 35.58 32.26 34.01 33.37C32.49 34.42 30.94 35.4 29.4 36.29ZM41.82 15.96C41.34 15.15 38.89 14.41 34.2 15.35C34.58 17.32 34.89 19.35 35.06 21.47C35.18 22.98 35.24 24.52 35.25 26.08C35.77 25.63 36.27 25.17 36.74 24.72C41.49 20.16 42.37 16.93 41.82 15.96ZM23.5 29.81C21.65 29.81 20.14 28.33 20.14 26.5C20.14 24.67 21.65 23.18 23.5 23.18C25.35 23.18 26.86 24.67 26.86 26.5C26.86 28.33 25.35 29.81 23.5 29.81Z" />
		</g>
	</g>
</svg>
