<svg xmlns="http://www.w3.org/2000/svg" viewBox="0 0 53 53" width="53" height="53">
	<style>
		tspan { white-space:pre }
		.shp0 { fill: #87949e } 
	</style>
	<g id="About Us">
		<g id="1st">
			<path id="Rocket" class="shp0" d="M47.88 27.32C45.39 31.15 41.9 34.33 38 36.9C37.62 43.11 34.47 48.89 29.36 52.54C28.93 52.84 28.42 53 27.91 53C27.59 53 27.27 52.94 26.96 52.81C26.17 52.48 25.6 51.77 25.46 50.93C25.08 48.69 24.08 46.22 22.6 43.71C20.94 44.16 19.33 44.53 17.83 44.79C17.69 44.82 17.54 44.83 17.4 44.83C16.75 44.83 16.11 44.57 15.64 44.1L8.89 37.35C8.32 36.78 8.06 35.96 8.2 35.17C8.46 33.66 8.83 32.06 9.28 30.4C6.78 28.92 4.3 27.92 2.07 27.54C1.22 27.4 0.51 26.83 0.18 26.04C-0.14 25.25 -0.04 24.34 0.46 23.64C4.11 18.53 9.89 15.38 16.1 15C18.66 11.1 21.84 7.61 25.67 5.12C32.93 0.39 41.57 0 50.51 0C51.89 0 53 1.11 53 2.48C53 11.07 52.6 20.07 47.88 27.32ZM28.89 47.54C31.14 45.35 32.71 42.56 33.44 39.53C31.2 40.68 28.91 41.64 26.66 42.44C27.6 44.16 28.37 45.87 28.89 47.54ZM5.46 24.11C7.12 24.63 8.84 25.39 10.55 26.34C11.35 24.08 12.32 21.8 13.46 19.56C10.43 20.28 7.65 21.85 5.46 24.11ZM28.39 9.29C20.47 14.44 15.22 25.56 13.34 34.76L18.23 39.65C27.43 37.78 38.55 32.53 43.71 24.61C47.28 19.12 47.92 12.24 48.01 4.99C40.75 5.08 33.88 5.71 28.39 9.29ZM35.58 21.56C33.29 21.56 31.44 19.7 31.44 17.41C31.44 15.12 33.29 13.27 35.58 13.27C37.87 13.27 39.73 15.12 39.73 17.41C39.73 19.7 37.87 21.56 35.58 21.56ZM3.41 44.41C3.93 42.71 5.51 41.47 7.38 41.47C9.67 41.47 11.53 43.32 11.53 45.61C11.53 47.49 10.29 49.07 8.59 49.58L2.65 51.38C2.57 51.41 2.49 51.42 2.41 51.42C1.95 51.42 1.58 51.05 1.58 50.59C1.58 50.51 1.59 50.43 1.61 50.35L3.41 44.41Z" />
		</g>
	</g>
</svg>