<svg xmlns="http://www.w3.org/2000/svg" viewBox="0 0 72 53" width="72" height="53">
	<style>
		tspan { white-space:pre }
		.shp0 { fill: #87949e } 
	</style>
	<g id="About Us">
		<g id="3rd">
			<path id="Activity" class="shp0" d="M71.73 20.97L63.26 1.89C62.76 0.78 61.65 0 60.35 0C58.84 0 57.58 1.06 57.26 2.47L48.89 39.33L37.88 12.57C37.4 11.41 36.27 10.6 34.94 10.6C33.63 10.6 32.51 11.39 32.02 12.53L22.01 35.9L16.61 25.08C16.09 24.04 15.01 23.32 13.77 23.32C12.78 23.32 11.91 23.76 11.33 24.46L0.74 37.18C0.28 37.74 0 38.44 0 39.22C0 40.97 1.42 42.4 3.18 42.4C4.16 42.4 5.04 41.95 5.62 41.25L13.1 32.27L19.39 44.88C19.91 45.92 20.99 46.64 22.24 46.64C23.55 46.64 24.67 45.84 25.16 44.71L34.88 21.99L46.83 51.03C47.3 52.19 48.44 53 49.77 53C51.28 53 52.54 51.94 52.86 50.53L61.33 13.22L65.92 23.55C66.41 24.66 67.53 25.44 68.82 25.44C70.58 25.44 72 24.01 72 22.26C72 21.8 71.9 21.36 71.73 20.97Z" />
		</g>
	</g>
</svg>