<svg xmlns="http://www.w3.org/2000/svg" viewBox="0 0 66 52" width="66" height="52">
	<style>
		tspan { white-space:pre }
		.shp0 { fill: #87949e } 
	</style>
	<g id="About Us">
		<g id="Group 8">
			<path id="Graduation_Cap" class="shp0" d="M63.97 15.25L34.64 0.39C34.14 0.14 33.59 0 33 0C32.41 0 31.86 0.14 31.36 0.39L2.03 15.25C0.83 15.86 0 17.12 0 18.57C0 20.02 0.83 21.29 2.03 21.9L3.67 22.73L3.67 35.8C2.57 36.44 1.83 37.63 1.83 39C1.83 41.05 3.48 42.71 5.5 42.71C7.53 42.71 9.17 41.05 9.17 39C9.17 37.63 8.43 36.44 7.33 35.8L7.33 24.58L12.83 27.37L12.83 39C12.83 46.18 21.86 52 33 52C44.14 52 53.17 46.18 53.17 39L53.17 27.37L63.97 21.9C65.17 21.29 66 20.02 66 18.57C66 17.12 65.17 15.86 63.97 15.25ZM47.67 39C47.67 42.43 41.26 46.43 33 46.43C24.74 46.43 18.33 42.43 18.33 39L18.33 30.15L31.36 36.75C31.86 37 32.41 37.14 33 37.14C33.59 37.14 34.14 37 34.64 36.75L47.67 30.15L47.67 39ZM33 31.35L7.76 18.57L33 5.79L58.24 18.57L33 31.35Z" />
		</g>
	</g>
</svg>