<svg xmlns="http://www.w3.org/2000/svg" viewBox="0 0 32 32" width="32" height="32">
	<style>
		tspan { white-space:pre }
		.shp0 { fill: #17daa3 } 
	</style>
	<g id="Our Services">
		<g id="Branding">
			<g id="Branding">
				<path id="Branding" class="shp0" d="M30 0L10 0C8.9 0 8 0.9 8 2L8 8L2 8C0.9 8 0 8.89 0 10L0 30C0 31.1 0.9 32 2 32L22 32C23.1 32 24 31.1 24 30L24 24L30 24C31.1 24 32 23.1 32 22L32 2C32 0.9 31.1 0 30 0ZM21 29L3 29L3 11L8 11L8 22C8 23.1 8.9 24 10 24L21 24L21 29ZM29 21L11 21L11 3L29 3L29 21Z" />
			</g>
		</g>
	</g>
</svg>