<svg xmlns="http://www.w3.org/2000/svg" viewBox="0 0 32 32" width="32" height="32">
	<style>
		tspan { white-space:pre }
		.shp0 { fill: #17daa3 } 
	</style>
	<g id="Our Services">
		<g id="Development">
			<g id="Development">
				<path id="Development" class="shp0" d="M28.91 16.47C27.41 18.78 25.31 20.7 22.95 22.24C22.73 25.99 20.83 29.47 17.75 31.67C17.49 31.86 17.18 31.95 16.87 31.95C16.68 31.95 16.49 31.91 16.3 31.84C15.82 31.64 15.48 31.21 15.4 30.7C15.17 29.35 14.56 27.86 13.67 26.35C12.67 26.62 11.7 26.85 10.8 27C10.71 27.02 10.63 27.03 10.54 27.03C10.15 27.03 9.76 26.87 9.48 26.59L5.41 22.52C5.07 22.17 4.91 21.68 4.99 21.2C5.15 20.29 5.37 19.32 5.64 18.33C4.14 17.44 2.64 16.83 1.3 16.6C0.79 16.52 0.36 16.17 0.16 15.7C-0.04 15.22 0.02 14.67 0.33 14.25C2.53 11.17 6.01 9.27 9.75 9.04C11.3 6.69 13.22 4.59 15.52 3.08C19.9 0.23 25.11 0 30.5 0C31.33 0 32 0.67 32 1.5C32 6.68 31.76 12.1 28.91 16.47ZM17.47 28.66C18.82 27.34 19.77 25.66 20.21 23.83C18.86 24.52 17.48 25.1 16.12 25.59C16.69 26.62 17.15 27.65 17.47 28.66ZM3.34 14.53C4.34 14.85 5.38 15.31 6.41 15.88C6.89 14.52 7.48 13.14 8.17 11.79C6.34 12.23 4.66 13.18 3.34 14.53ZM17.16 5.6C12.39 8.71 9.22 15.41 8.09 20.96L11.04 23.9C16.59 22.77 23.29 19.61 26.4 14.84C28.55 11.52 28.94 7.38 28.99 3.01C24.62 3.06 20.47 3.44 17.16 5.6ZM21.5 13C20.12 13 19 11.88 19 10.5C19 9.12 20.12 8 21.5 8C22.88 8 24 9.12 24 10.5C24 11.88 22.88 13 21.5 13ZM2.11 26.77C2.42 25.75 3.37 25 4.5 25C5.88 25 7 26.12 7 27.5C7 28.63 6.25 29.58 5.23 29.89L1.65 30.98C1.6 30.99 1.55 31 1.5 31C1.22 31 1 30.77 1 30.5C1 30.45 1.01 30.4 1.02 30.35L2.11 26.77Z" />
			</g>
		</g>
	</g>
</svg>