<svg xmlns="http://www.w3.org/2000/svg" viewBox="0 0 32 29" width="32" height="29">
	<style>
		tspan { white-space:pre }
		.shp0 { fill: #17daa3 } 
	</style>
	<g id="Our Services">
		<g id="Portfolio">
			<g id="Portfolio">
				<path id="Portfolio" class="shp0" d="M24 5.39L24 2.39C24 1.29 23.1 0.4 22 0.4L10 0.4C8.9 0.4 8 1.29 8 2.39L8 5.39L2 5.39C0.9 5.39 0 6.28 0 7.38L0 26.35C0 27.45 0.9 28.35 2 28.35L30 28.35C31.1 28.35 32 27.45 32 26.35L32 7.38C32 6.28 31.1 5.39 30 5.39L24 5.39ZM11 3.39L21 3.39L21 5.39L11 5.39L11 3.39ZM29 8.38L29 14.37L19 14.37L19 13.37L13 13.37L13 14.37L3 14.37L3 8.38L29 8.38ZM3 25.35L3 17.37L13 17.37L13 18.36L19 18.36L19 17.37L29 17.37L29 25.35L3 25.35Z" />
			</g>
		</g>
	</g>
</svg>